<?xml version="1.0" standalone="no"?>
<svg viewBox="0 0 200 200" xmlns="http://www.w3.org/2000/svg">
  <path fill="#0F62FE" d="M15.2,-31.6C20,-20.5,24.5,-16.9,31.3,-11.5C38.2,-6.1,47.4,1,45.7,6C44.1,10.9,31.5,13.6,25.3,23.3C19.1,32.9,19.2,49.4,13.3,56.2C7.4,62.9,-4.6,59.7,-18.6,58C-32.5,56.3,-48.3,56,-57.7,48.3C-67,40.6,-69.9,25.5,-61.7,15.1C-53.4,4.7,-34.2,-1.1,-24.2,-6.2C-14.3,-11.3,-13.7,-15.8,-11.2,-28C-8.7,-40.2,-4.3,-60.1,0.4,-60.8C5.2,-61.4,10.3,-42.8,15.2,-31.6Z" transform="translate(100 100)" />
</svg>
